<?xml version="1.0" standalone="no"?>
<!DOCTYPE svg PUBLIC "-//W3C//DTD SVG 20010904//EN"
 "http://www.w3.org/TR/2001/REC-SVG-20010904/DTD/svg10.dtd">
<svg version="1.0" xmlns="http://www.w3.org/2000/svg"
 width="1536.000000pt" height="1087.000000pt" viewBox="0 0 1536.000000 1087.000000"
 preserveAspectRatio="xMidYMid meet">

<g transform="translate(0.000000,1087.000000) scale(0.100000,-0.100000)"
fill="#000000" stroke="none">
<path d="M7275 9394 c-168 -45 -236 -73 -442 -183 -39 -21 -95 -44 -125 -51
-70 -17 -336 -148 -413 -204 -16 -12 -124 -82 -240 -155 -289 -183 -346 -221
-503 -337 -75 -55 -164 -120 -196 -144 -33 -24 -69 -51 -80 -61 -12 -10 -60
-48 -107 -86 -47 -37 -134 -108 -191 -158 -58 -49 -183 -155 -277 -234 -94
-80 -188 -160 -208 -179 -21 -19 -78 -71 -128 -115 -49 -44 -104 -94 -121
-111 -63 -64 -262 -246 -344 -316 -75 -63 -363 -349 -460 -456 -20 -21 -69
-70 -108 -108 -40 -38 -89 -88 -108 -112 -60 -73 -77 -70 -177 32 -80 82 -162
217 -197 325 -127 389 9 808 450 1385 82 108 216 246 380 391 82 73 129 105
215 149 95 48 114 54 137 45 14 -5 29 -19 33 -30 7 -24 28 -27 42 -8 6 6 18
35 27 64 37 113 4 142 -117 104 -234 -75 -458 -256 -765 -619 -107 -127 -174
-220 -305 -423 -87 -135 -188 -383 -228 -561 -17 -79 -20 -116 -16 -243 3
-126 8 -164 31 -239 65 -214 139 -338 264 -439 83 -67 87 -83 43 -145 -40 -54
-179 -189 -215 -209 -17 -8 -61 -26 -99 -39 -68 -23 -152 -65 -236 -118 -48
-31 -64 -80 -37 -121 25 -37 65 -33 105 11 32 34 51 40 59 16 2 -6 -21 -38
-50 -71 -29 -33 -78 -95 -109 -138 -31 -43 -132 -184 -226 -313 -93 -129 -176
-246 -183 -260 -7 -14 -45 -68 -84 -120 -40 -52 -103 -143 -141 -203 -39 -59
-93 -138 -120 -175 -46 -61 -245 -399 -245 -415 0 -4 -29 -58 -64 -120 -35
-61 -74 -134 -86 -161 -12 -28 -33 -66 -46 -85 -13 -20 -40 -74 -59 -121 -20
-47 -43 -98 -50 -115 -20 -46 -110 -266 -123 -300 -30 -83 -85 -313 -97 -405
-4 -30 -13 -84 -21 -120 -19 -89 -17 -133 5 -161 18 -23 18 -23 64 -5 70 26
72 32 73 180 0 110 5 152 31 261 36 150 67 246 118 365 20 47 52 123 71 169
55 133 372 751 405 788 16 19 45 65 64 102 19 38 52 89 73 114 22 25 57 74 78
109 21 35 66 102 100 149 34 48 71 104 83 125 11 22 30 53 43 70 63 86 112
150 118 154 8 6 123 166 217 300 36 52 98 133 138 180 39 47 97 123 130 170
109 158 147 187 280 213 271 53 417 52 815 -9 360 -54 708 -195 890 -358 155
-139 250 -280 271 -400 14 -84 8 -140 -26 -248 -39 -125 -91 -216 -230 -403
-108 -147 -319 -370 -455 -483 -30 -25 -75 -65 -100 -87 -25 -23 -70 -57 -100
-76 -30 -18 -82 -54 -116 -80 -33 -26 -78 -57 -100 -69 -21 -11 -61 -37 -89
-56 -61 -43 -272 -146 -369 -181 -39 -14 -92 -36 -118 -49 -26 -13 -74 -30
-105 -38 -32 -8 -76 -21 -98 -29 -64 -23 -113 -29 -136 -17 -19 11 -20 17 -15
64 6 44 4 57 -13 77 l-20 24 -53 -27 c-29 -16 -58 -28 -63 -28 -13 0 -302
-141 -367 -179 -247 -146 -433 -290 -455 -352 -28 -80 -7 -140 54 -155 35 -9
192 11 273 36 206 61 274 88 451 173 106 51 268 136 359 189 180 104 298 162
433 214 147 57 394 186 570 300 37 24 69 44 72 44 2 0 33 20 68 44 83 57 285
173 326 187 24 8 35 8 46 -1 18 -15 20 -76 4 -117 -29 -77 -70 -332 -75 -477
-7 -171 3 -265 42 -395 43 -140 75 -165 158 -126 84 40 171 149 267 332 56
108 124 183 166 183 17 0 36 -6 42 -14 6 -8 35 -24 64 -36 92 -40 248 -14 356
60 56 38 104 40 152 4 96 -73 243 -117 386 -117 92 0 108 3 165 30 35 17 84
46 109 65 92 71 98 71 185 19 35 -21 97 -47 137 -57 141 -36 316 -17 385 41
36 30 74 45 118 47 26 1 45 -9 88 -46 87 -74 155 -101 251 -101 65 1 91 6 137
27 105 48 199 122 280 217 25 29 50 37 98 32 8 -1 34 -16 58 -33 39 -27 123
-66 197 -89 66 -22 135 -27 245 -18 139 10 259 46 403 120 104 53 124 67 168
112 15 15 31 27 37 27 5 0 21 11 36 25 15 14 33 25 41 25 8 0 22 11 31 25 9
14 21 25 28 25 10 0 24 23 43 69 10 23 -36 3 -122 -55 -44 -29 -107 -65 -140
-79 -33 -14 -71 -32 -85 -39 -41 -23 -232 -98 -282 -111 -86 -23 -264 -29
-342 -10 -167 39 -239 113 -235 241 1 21 -5 55 -12 74 -20 49 -13 89 17 100
14 6 75 17 137 25 137 18 207 36 246 64 16 12 38 21 48 21 11 0 29 11 40 24
11 13 27 26 34 29 23 9 -12 28 -41 22 -112 -23 -504 -81 -645 -95 -44 -5 -131
-13 -193 -19 -81 -8 -137 -8 -200 -1 -159 20 -257 40 -281 58 -85 62 -19 174
229 395 95 83 99 87 108 87 5 0 17 9 27 20 10 11 24 20 32 20 7 0 13 4 13 9 0
5 26 24 57 41 31 18 62 38 70 45 7 7 28 23 48 35 19 12 35 25 35 30 0 4 10 10
23 14 13 3 43 21 68 41 24 19 47 35 52 35 10 0 77 44 143 92 28 21 55 38 61
38 5 0 22 13 39 28 16 16 58 43 94 61 36 18 97 50 135 71 39 22 81 44 95 50
37 15 42 18 75 40 17 10 44 26 62 35 18 9 37 23 44 31 6 8 17 14 24 14 7 0 23
11 36 25 13 13 30 25 37 25 7 0 20 4 30 9 9 5 71 35 137 67 66 31 132 65 147
75 14 11 31 19 37 19 11 0 121 67 147 88 6 6 26 13 45 17 19 4 57 18 84 30 76
36 181 75 202 75 10 0 43 16 73 35 30 19 60 35 66 35 6 0 17 6 23 14 7 8 27
17 45 20 18 4 41 15 51 26 10 11 22 17 27 14 12 -8 82 17 91 32 4 8 20 14 36
14 33 0 107 23 181 57 30 14 95 34 144 44 49 11 94 23 100 27 6 5 40 17 76 26
36 10 90 29 120 41 30 13 71 26 90 30 19 4 41 11 50 15 8 5 58 20 110 35 52
15 111 35 130 45 19 9 56 20 82 24 26 4 109 25 185 48 76 22 152 42 168 45 89
12 164 25 200 33 153 34 175 17 120 -98 -37 -79 -53 -106 -164 -278 -37 -56
-88 -139 -116 -184 -27 -45 -74 -118 -104 -163 -29 -45 -57 -91 -62 -102 -14
-30 -45 -82 -131 -219 -43 -67 -111 -181 -151 -252 -40 -71 -94 -163 -119
-204 -24 -41 -59 -101 -77 -132 -35 -63 -126 -149 -147 -141 -8 3 -14 1 -14
-5 0 -6 5 -12 11 -14 23 -8 -9 -117 -59 -201 -144 -241 -457 -850 -592 -1152
-25 -57 -58 -128 -124 -268 -25 -54 -46 -100 -46 -103 0 -2 -23 -52 -51 -111
-62 -131 -114 -255 -180 -428 -28 -71 -56 -143 -63 -160 -15 -34 -71 -187 -81
-225 -4 -14 -17 -43 -28 -65 -11 -22 -54 -137 -94 -255 -119 -346 -172 -578
-147 -644 9 -23 66 -20 97 4 13 11 46 61 72 112 27 51 61 113 78 137 53 78
117 218 141 311 13 49 21 90 17 89 -3 0 -33 -37 -66 -81 -33 -45 -74 -89 -92
-99 l-32 -18 6 37 c3 20 15 62 25 92 11 30 36 105 56 165 21 61 41 115 45 122
14 22 68 158 83 208 9 28 31 86 51 130 61 140 95 225 109 275 3 14 40 99 82
190 41 91 82 185 92 210 9 25 34 79 55 120 22 41 53 107 70 145 18 39 45 97
62 130 17 33 47 101 68 150 20 50 63 144 94 210 32 66 60 125 62 130 2 6 25
48 51 95 25 47 54 105 64 130 10 25 44 91 76 148 33 57 70 127 83 155 27 59
78 149 106 188 24 35 102 84 158 100 84 25 145 120 81 127 -85 9 -110 14 -110
26 0 6 15 34 33 61 17 27 37 56 42 64 6 9 30 47 55 85 103 158 254 412 292
492 23 47 84 132 154 213 18 20 49 65 69 101 56 97 165 271 192 306 13 17 23
33 23 36 0 3 18 36 40 72 22 37 51 90 64 119 25 54 85 156 107 183 7 9 31 25
53 36 34 18 68 23 193 29 84 4 168 13 187 19 22 7 142 12 328 13 266 2 296 0
321 -16 44 -29 35 -55 -45 -138 -39 -41 -94 -101 -122 -135 -28 -34 -76 -90
-107 -125 -120 -136 -351 -460 -493 -689 -32 -52 -69 -111 -81 -130 -50 -77
-148 -246 -180 -310 -19 -38 -39 -71 -45 -75 -15 -9 -47 -81 -60 -135 -6 -25
-17 -58 -25 -75 -38 -81 -83 -184 -140 -325 -35 -85 -75 -178 -88 -206 -14
-27 -30 -69 -37 -93 -6 -23 -47 -138 -91 -254 -43 -116 -79 -217 -79 -224 0
-7 -9 -39 -19 -70 -11 -32 -26 -94 -35 -138 -24 -121 -32 -160 -60 -284 -33
-147 -37 -304 -7 -320 25 -14 95 7 220 65 109 51 184 97 325 201 54 40 108 73
120 73 13 0 42 -21 71 -51 80 -81 117 -94 265 -93 115 0 132 3 215 33 l90 33
229 -7 c126 -3 233 -8 238 -11 20 -13 56 7 74 41 17 33 18 36 1 52 -14 15 -47
18 -215 24 -156 5 -209 11 -255 26 l-57 20 -63 -39 c-148 -91 -305 -103 -412
-29 -36 24 -42 34 -57 95 -24 98 -42 106 -109 48 -82 -70 -311 -233 -384 -272
-27 -15 -76 -42 -107 -59 -64 -36 -98 -35 -98 2 1 52 32 225 69 382 23 94 50
211 62 260 12 50 29 106 39 125 10 19 25 58 33 85 14 49 60 167 131 335 20 47
36 91 36 98 0 7 8 27 17 45 9 18 39 88 68 157 62 152 156 331 225 425 31 44
48 76 44 85 -19 43 -15 62 24 123 21 34 58 97 82 140 23 42 52 90 64 105 12
15 37 54 56 87 45 81 139 221 223 330 38 50 86 113 108 142 21 28 43 54 49 58
6 3 34 39 63 78 30 40 111 131 182 202 71 72 140 148 155 170 14 22 43 54 64
70 20 17 63 53 94 81 65 57 159 117 222 139 58 20 172 22 200 2 47 -33 78 7
59 75 -7 27 -17 39 -41 47 -98 35 -286 -16 -398 -108 -25 -20 -69 -52 -98 -70
l-52 -33 -68 20 c-79 25 -248 46 -300 38 -20 -3 -109 -8 -196 -11 -88 -3 -163
-8 -168 -11 -5 -3 -57 -10 -116 -15 -59 -5 -131 -14 -160 -20 -58 -12 -122 2
-122 26 0 7 17 39 38 71 68 104 194 297 230 354 20 30 51 78 70 105 19 28 63
93 98 145 36 52 89 129 119 170 30 41 76 107 101 145 26 39 65 90 87 115 22
25 56 63 76 86 20 22 68 76 106 120 79 90 148 150 208 179 49 24 62 43 53 78
-9 39 -33 58 -64 51 -90 -21 -292 -217 -509 -494 -51 -65 -188 -255 -208 -287
-5 -10 -58 -89 -116 -177 -138 -211 -169 -258 -215 -336 -21 -36 -66 -109
-101 -162 -35 -54 -63 -101 -63 -104 0 -4 -14 -29 -31 -56 -36 -56 -59 -70
-144 -87 -57 -12 -224 -49 -345 -76 -125 -29 -409 -105 -460 -123 -30 -11 -98
-32 -150 -47 -126 -35 -189 -54 -225 -70 -16 -7 -79 -29 -140 -50 -60 -20
-118 -41 -128 -47 -10 -5 -26 -11 -35 -13 -9 -2 -78 -27 -152 -55 -74 -29
-151 -56 -170 -60 -58 -13 -101 -29 -116 -41 -14 -11 -58 -29 -218 -85 -38
-13 -87 -34 -110 -47 -23 -14 -54 -27 -71 -31 -16 -4 -88 -35 -160 -70 -71
-35 -157 -75 -190 -90 -33 -15 -76 -36 -95 -47 -19 -11 -71 -36 -115 -56 -44
-21 -107 -52 -140 -70 -33 -18 -80 -43 -105 -54 -127 -60 -128 -61 -272 -142
-27 -15 -69 -39 -95 -54 -27 -14 -73 -42 -103 -62 -30 -20 -84 -52 -120 -70
-36 -19 -81 -46 -100 -60 -19 -15 -57 -38 -83 -51 -27 -14 -59 -35 -70 -47
-12 -13 -27 -23 -33 -23 -6 0 -43 -23 -83 -50 -40 -28 -75 -50 -77 -50 -10 0
-95 -59 -185 -130 -53 -41 -132 -102 -175 -135 -189 -145 -314 -306 -314 -404
0 -82 57 -153 151 -187 91 -33 197 -43 424 -39 121 1 248 6 283 10 l62 8 0
-35 c0 -35 -24 -99 -77 -205 -28 -56 -130 -160 -223 -228 -63 -45 -138 -74
-192 -75 -62 0 -142 36 -187 85 -40 44 -41 46 -41 119 0 69 -2 76 -26 95 -15
12 -33 21 -41 21 -20 0 -57 -43 -92 -105 -63 -112 -150 -163 -293 -172 -109
-7 -210 21 -257 71 -16 17 -45 48 -64 68 -54 59 -75 53 -172 -44 -128 -130
-231 -167 -375 -134 -136 30 -180 60 -270 186 -8 11 -31 23 -50 26 -32 5 -44
-2 -125 -65 -144 -114 -161 -124 -216 -129 l-51 -5 -63 68 c-61 66 -64 68
-104 62 -52 -7 -98 -41 -192 -143 -52 -58 -90 -112 -128 -185 -65 -125 -92
-168 -120 -193 -20 -18 -22 -18 -40 -2 -20 19 -37 93 -46 204 -6 86 20 396 39
467 8 28 17 74 21 103 8 64 64 241 94 300 23 46 105 116 204 176 36 22 70 50
75 61 6 12 23 25 39 28 15 3 61 31 101 62 40 30 78 55 84 55 6 0 38 23 69 50
32 28 73 56 91 62 18 6 38 16 43 22 6 6 28 20 50 31 22 11 53 30 68 42 15 12
44 30 63 39 20 10 38 23 41 31 3 7 9 13 15 13 14 0 158 102 158 112 0 4 7 8
16 8 9 0 57 31 107 68 51 37 112 81 137 97 53 34 183 128 260 189 30 24 74 55
97 69 22 14 67 51 98 82 31 30 61 55 67 55 6 0 27 17 47 39 38 40 156 121 177
121 7 0 33 17 57 38 86 73 131 107 181 140 28 18 56 39 61 45 6 7 37 32 70 56
33 25 74 56 91 70 76 63 225 171 236 171 5 0 8 6 8 13 0 8 16 27 36 43 20 16
44 36 53 44 9 9 34 26 54 39 24 14 36 29 33 37 -3 8 1 14 9 14 8 0 18 6 22 13
4 7 19 18 33 25 39 19 60 34 104 77 22 22 44 40 48 40 4 0 16 9 27 20 20 20
60 56 189 165 39 34 72 66 72 71 0 5 5 9 11 9 15 0 348 340 366 374 8 15 41
54 74 86 32 32 59 63 59 69 0 6 21 33 48 59 66 67 140 160 130 163 -2 0 -15 3
-30 5 -23 4 -28 1 -28 -16 0 -13 -7 -20 -19 -20 -39 0 -104 -80 -95 -117 4
-16 2 -23 -9 -23 -8 0 -17 -7 -21 -15 -3 -8 -15 -14 -28 -12 -18 2 -23 -2 -21
-20 2 -13 -1 -22 -5 -21 -16 5 -62 -36 -62 -56 0 -23 -20 -61 -20 -38 0 23
-21 12 -61 -30 -22 -24 -49 -52 -60 -63 -10 -12 -19 -26 -19 -33 0 -7 -7 -12
-15 -12 -16 0 -85 -65 -85 -80 0 -5 -9 -11 -19 -15 -11 -3 -22 -14 -25 -23 -3
-10 -20 -26 -37 -36 -17 -10 -64 -50 -104 -90 -87 -83 -93 -88 -168 -146 -32
-24 -62 -51 -68 -62 -5 -10 -16 -18 -24 -18 -8 0 -17 -10 -20 -23 -4 -14 -21
-29 -43 -39 -20 -10 -55 -33 -77 -53 -22 -19 -43 -35 -48 -35 -4 0 -34 -27
-66 -59 -33 -33 -61 -58 -64 -55 -3 3 -18 -10 -33 -29 -16 -19 -49 -47 -74
-62 -24 -16 -50 -33 -56 -39 -7 -6 -26 -22 -44 -36 -18 -14 -44 -36 -59 -50
-15 -14 -31 -25 -36 -25 -6 0 -11 -12 -13 -27 -3 -28 -17 -38 -24 -17 -2 6
-24 -6 -50 -25 -26 -20 -50 -36 -54 -36 -4 0 -26 -16 -50 -35 -23 -19 -46 -35
-50 -35 -3 0 -17 -10 -28 -22 -12 -13 -33 -30 -45 -38 -13 -8 -40 -28 -61 -45
-21 -16 -48 -37 -60 -45 -39 -26 -108 -98 -115 -120 -5 -15 -13 -20 -26 -17
-10 3 -17 1 -13 -4 3 -5 -1 -9 -9 -9 -7 0 -26 -13 -41 -29 -18 -19 -34 -27
-49 -24 -15 3 -38 -9 -69 -34 -59 -48 -174 -134 -198 -148 -10 -5 -53 -37 -96
-70 -44 -33 -108 -79 -144 -102 -35 -24 -68 -50 -73 -58 -4 -8 -14 -15 -22
-15 -8 0 -20 -9 -27 -20 -7 -12 -47 -41 -88 -66 -72 -43 -148 -93 -199 -131
-28 -21 -53 -38 -112 -77 -106 -69 -153 -102 -168 -122 -9 -12 -27 -24 -39
-28 -12 -4 -28 -13 -34 -20 -20 -20 -138 -96 -149 -96 -5 0 -12 -7 -15 -15 -3
-8 -21 -19 -39 -25 -18 -6 -51 -28 -74 -48 -56 -50 -185 -115 -210 -107 -28 9
-34 35 -17 81 16 46 105 227 160 324 20 36 53 97 72 135 20 39 46 81 59 95 13
14 46 66 73 115 28 50 64 108 79 130 15 22 36 56 47 75 10 19 30 49 45 65 16
17 38 48 51 70 31 52 103 166 149 235 20 30 48 77 62 104 13 27 45 70 70 95
26 25 67 77 93 115 25 37 57 82 72 100 14 17 53 70 87 117 34 48 88 118 121
155 32 38 83 105 115 149 31 44 121 145 201 225 80 80 191 195 246 255 154
168 157 171 344 351 186 180 397 372 493 448 84 68 96 78 134 110 47 40 124
97 208 152 39 26 88 61 110 79 72 58 570 321 703 371 107 41 251 83 316 94
100 16 229 -10 347 -71 69 -35 87 -10 47 62 -53 95 -274 132 -498 85 -173 -36
-207 -49 -461 -167 -156 -73 -517 -278 -574 -327 -6 -5 -24 -17 -40 -27 -17
-11 -49 -33 -71 -50 -68 -49 -87 -62 -131 -92 -40 -27 -70 -52 -304 -249 -111
-94 -346 -312 -473 -440 -196 -196 -555 -571 -591 -616 -11 -14 -43 -52 -72
-84 -28 -33 -85 -100 -125 -149 -40 -50 -83 -102 -96 -115 -32 -33 -302 -406
-302 -416 0 -4 -7 -16 -17 -26 -9 -10 -21 -27 -27 -37 -6 -11 -56 -87 -111
-170 -55 -83 -113 -173 -130 -202 -16 -28 -53 -85 -80 -127 -28 -43 -68 -112
-90 -156 -22 -43 -46 -81 -54 -84 -22 -8 -38 22 -56 106 -22 100 -36 132 -93
217 -56 84 -220 251 -317 324 -82 61 -282 160 -375 185 -36 10 -97 28 -135 41
-39 12 -134 35 -210 49 -169 33 -217 51 -213 80 3 19 15 22 153 37 279 31 565
118 820 250 185 96 353 187 450 245 55 33 127 75 160 93 33 19 79 49 103 68
24 19 89 63 145 97 98 60 286 189 392 270 28 21 114 86 191 144 198 150 342
263 394 309 25 22 92 82 150 132 129 114 293 274 410 401 153 165 270 302 270
315 0 7 4 15 10 17 5 2 39 41 74 88 44 56 61 87 53 92 -12 7 -37 -8 -37 -22 0
-5 -12 -22 -27 -38 -108 -116 -136 -148 -157 -180 -32 -50 -80 -102 -94 -102
-7 0 -12 -4 -12 -9 0 -5 -9 -11 -20 -14 -11 -3 -23 -13 -26 -22 -9 -24 -45
-60 -67 -68 -11 -4 -21 -15 -24 -25 -2 -10 -26 -33 -53 -51 -27 -18 -51 -40
-54 -47 -3 -8 -9 -14 -14 -14 -5 0 -51 -42 -104 -92 -119 -116 -177 -168 -229
-204 -22 -15 -46 -35 -52 -43 -7 -9 -30 -29 -52 -46 -22 -16 -62 -50 -90 -75
-27 -25 -63 -55 -79 -66 -70 -47 -175 -122 -227 -162 -20 -15 -62 -47 -95 -72
-32 -24 -104 -75 -159 -113 -157 -106 -168 -115 -197 -136 -14 -12 -31 -21
-36 -21 -5 0 -46 -27 -91 -60 -44 -33 -91 -65 -103 -70 -13 -6 -40 -20 -60
-33 -20 -12 -65 -38 -100 -58 -35 -20 -90 -51 -123 -71 -33 -19 -71 -41 -85
-49 -14 -8 -32 -19 -40 -25 -39 -29 -434 -225 -500 -249 -406 -144 -553 -175
-828 -176 -84 0 -157 3 -161 6 -5 3 -44 10 -87 16 -44 6 -98 19 -121 29 -80
35 -79 36 276 388 310 308 431 423 512 489 64 51 194 169 324 293 66 63 149
137 185 165 36 27 121 102 190 166 171 160 297 267 344 291 37 19 61 37 226
172 36 29 108 83 160 120 52 38 106 78 120 91 23 21 265 181 432 286 224 142
449 279 493 302 28 14 76 45 107 70 38 29 77 50 120 61 35 10 138 46 229 81
284 110 414 141 545 132 90 -6 114 -3 114 18 0 32 -75 60 -185 69 -50 4 -89
-2 -230 -40z m1439 -2265 c-3 -5 -10 -7 -15 -3 -5 3 -7 10 -3 15 3 5 10 7 15
3 5 -3 7 -10 3 -15z m-78 -76 c-10 -10 -19 5 -10 18 6 11 8 11 12 0 2 -7 1
-15 -2 -18z m-5314 -916 c31 -14 73 -29 94 -32 56 -9 95 -26 91 -39 -2 -6 -32
-14 -68 -18 -35 -3 -91 -11 -124 -16 -33 -6 -97 -14 -142 -17 l-83 -7 0 27 c0
18 16 43 52 82 48 50 56 55 88 50 20 -2 61 -16 92 -30z m4315 17 c-3 -3 -12
-4 -19 -1 -8 3 -5 6 6 6 11 1 17 -2 13 -5z m-4835 -2926 c74 -97 71 -133 -14
-172 -168 -77 -313 -135 -457 -182 -175 -57 -212 -57 -197 0 12 49 243 205
491 333 121 62 144 65 177 21z"/>
<path d="M7692 8928 c-12 -14 -19 -27 -16 -31 4 -3 -10 -28 -30 -55 -20 -27
-36 -56 -36 -64 0 -7 -9 -21 -19 -30 -13 -11 -18 -24 -14 -37 4 -14 1 -21 -9
-21 -14 0 -38 -39 -38 -62 0 -17 40 23 61 62 11 19 35 60 54 90 19 30 35 64
35 76 0 11 9 30 21 42 11 13 19 30 17 38 -2 13 -8 11 -26 -8z"/>
<path d="M9390 8243 c-33 -71 -62 -197 -53 -231 7 -29 33 -28 33 1 0 13 6 29
13 35 6 7 12 16 13 20 0 4 9 25 18 47 18 40 17 107 -2 141 -7 12 -11 9 -22
-13z"/>
<path d="M9260 7860 c0 -5 -7 -10 -16 -10 -11 0 -14 -5 -9 -17 14 -34 10 -46
-18 -54 -30 -8 -77 -55 -77 -77 0 -7 -7 -15 -16 -19 -8 -3 -13 -12 -10 -20 3
-7 -1 -16 -9 -19 -8 -4 -15 -12 -15 -20 0 -8 -6 -14 -13 -14 -21 0 -82 -90
-68 -99 8 -5 5 -13 -9 -26 -24 -21 -25 -38 -6 -54 12 -10 13 -8 9 8 -4 16 -1
21 14 21 19 0 78 62 117 125 20 30 29 42 56 74 24 28 42 61 79 144 25 56 26
67 6 67 -8 0 -15 -4 -15 -10z"/>
<path d="M14300 5220 c-11 -7 -12 -12 -3 -21 13 -13 33 -4 33 17 0 16 -9 18
-30 4z"/>
<path d="M14163 5213 c-20 -7 -15 -23 7 -23 11 0 20 4 20 9 0 13 -12 19 -27
14z"/>
<path d="M13968 5163 c6 -2 18 -2 25 0 6 3 1 5 -13 5 -14 0 -19 -2 -12 -5z"/>
<path d="M13500 5092 l-45 -15 35 -12 c27 -9 40 -9 60 2 14 7 33 13 43 13 9 0
17 5 17 10 0 6 -9 10 -19 10 -11 0 -25 2 -33 4 -7 2 -33 -4 -58 -12z"/>
<path d="M13765 4234 c-25 -27 -42 -85 -30 -103 13 -22 57 -11 91 23 26 26 34
42 34 70 0 35 -1 36 -35 36 -26 0 -43 -7 -60 -26z"/>
<path d="M9508 4234 c-3 -3 -17 -6 -32 -7 -37 -3 -37 -19 2 -22 21 -2 32 2 32
10 0 7 6 16 13 18 6 3 7 6 1 6 -6 1 -13 -1 -16 -5z"/>
<path d="M9045 4134 c-45 -23 -44 -27 5 -19 53 8 91 35 50 35 -14 0 -38 -7
-55 -16z"/>
<path d="M8959 4116 c-2 -2 -29 -6 -59 -9 -63 -7 -90 -15 -90 -28 0 -19 29
-20 60 -4 18 9 40 15 49 12 9 -2 25 5 35 15 11 10 17 18 14 18 -2 0 -7 -2 -9
-4z"/>
</g>
</svg>
